<?xml version="1.0" encoding="UTF-8" standalone="no"?>
<!-- Created with Inkscape (http://www.inkscape.org/) -->

<svg
   width="150mm"
   height="50mm"
   viewBox="0 0 150 50"
   version="1.1"
   id="svg56"
   inkscape:version="1.1.2 (b8e25be8, 2022-02-05)"
   sodipodi:docname="Base Logo.svg"
   xmlns:inkscape="http://www.inkscape.org/namespaces/inkscape"
   xmlns:sodipodi="http://sodipodi.sourceforge.net/DTD/sodipodi-0.dtd"
   xmlns="http://www.w3.org/2000/svg"
   xmlns:svg="http://www.w3.org/2000/svg">
  <sodipodi:namedview
     id="namedview58"
     pagecolor="#ffffff"
     bordercolor="#666666"
     borderopacity="1.0"
     inkscape:pageshadow="2"
     inkscape:pageopacity="0.0"
     inkscape:pagecheckerboard="false"
     inkscape:document-units="mm"
     showgrid="false"
     inkscape:zoom="0.81657662"
     inkscape:cx="247.98653"
     inkscape:cy="173.28441"
     inkscape:window-width="1312"
     inkscape:window-height="773"
     inkscape:window-x="0"
     inkscape:window-y="25"
     inkscape:window-maximized="0"
     inkscape:current-layer="layer1" />
  <defs
     id="defs53" />
  <g
     inkscape:label="Layer 1"
     inkscape:groupmode="layer"
     id="layer1">
    <g
       id="g48650"
       transform="translate(-33.510916,-109.04854)">
      <text
         xml:space="preserve"
         style="font-style:normal;font-weight:normal;font-size:19.1765px;line-height:1;font-family:sans-serif;fill:#ec5242;fill-opacity:1;stroke:none;stroke-width:0.479414"
         x="84.618202"
         y="131.0708"
         id="text1074"><tspan
           sodipodi:role="line"
           id="tspan1072"
           style="font-style:normal;font-variant:normal;font-weight:900;font-stretch:condensed;font-size:19.1765px;font-family:'Helvetica Neue';-inkscape-font-specification:'Helvetica Neue Heavy Condensed';font-variant-ligatures:normal;font-variant-caps:normal;font-variant-numeric:normal;font-variant-east-asian:normal;fill:#ec5242;fill-opacity:1;stroke-width:0.479414"
           x="84.618202"
           y="131.0708">Asia Web</tspan><tspan
           sodipodi:role="line"
           style="font-style:normal;font-variant:normal;font-weight:900;font-stretch:condensed;font-size:19.1765px;font-family:'Helvetica Neue';-inkscape-font-specification:'Helvetica Neue Heavy Condensed';font-variant-ligatures:normal;font-variant-caps:normal;font-variant-numeric:normal;font-variant-east-asian:normal;fill:#ec5242;fill-opacity:1;stroke-width:0.479414"
           x="84.618202"
           y="150.69498"
           id="tspan24663">Conference</tspan></text>
      <g
         id="g36241"
         transform="matrix(0.07145691,0,0,0.07145691,44.978469,115.81205)"
         inkscape:export-filename="/Users/mavericks/Downloads/AsiaWebConf-Icon.png"
         inkscape:export-xdpi="96"
         inkscape:export-ydpi="96">
        <circle
           style="fill:#263740"
           cx="255.99899"
           cy="255.99899"
           r="255.99899"
           id="circle36002" />
        <g
           id="g36050">
          <rect
             x="240.00301"
             y="360"
             style="fill:#cc584c"
             width="47.999001"
             height="16"
             id="rect36004" />
          <rect
             x="147.99699"
             y="327.99701"
             style="fill:#cc584c"
             width="143.996"
             height="16"
             id="rect36006" />
          <rect
             x="216.004"
             y="392.00201"
             style="fill:#cc584c"
             width="43.997002"
             height="16"
             id="rect36008" />
          <rect
             x="104"
             y="104"
             style="fill:#cc584c"
             width="88.003998"
             height="16"
             id="rect36010" />
          <rect
             x="104"
             y="68"
             style="fill:#cc584c"
             width="39.994999"
             height="16"
             id="rect36012" />
          <rect
             x="160.002"
             y="392.00201"
             style="fill:#cc584c"
             width="43.997002"
             height="16"
             id="rect36014" />
          <path
             style="fill:#cc584c"
             d="m 472,328 v 16 h 24.472 c 1.916,-5.252 3.604,-10.6 5.188,-16 z"
             id="path36016" />
          <path
             style="fill:#cc584c"
             d="m 464,232 v 16 h 47.796 c -0.164,-5.376 -0.46,-10.716 -0.952,-16 z"
             id="path36018" />
          <rect
             x="147.99699"
             y="360"
             style="fill:#cc584c"
             width="68"
             height="16"
             id="rect36020" />
          <rect
             x="104"
             y="136.00301"
             style="fill:#cc584c"
             width="156.00101"
             height="16"
             id="rect36022" />
          <rect
             x="167.995"
             y="455.99701"
             style="fill:#cc584c"
             width="68"
             height="16"
             id="rect36024" />
          <rect
             x="255.99899"
             y="455.99701"
             style="fill:#cc584c"
             width="20"
             height="16"
             id="rect36026" />
          <rect
             x="104"
             y="424.005"
             style="fill:#cc584c"
             width="88.003998"
             height="16"
             id="rect36028" />
          <rect
             x="104"
             y="392.00201"
             style="fill:#cc584c"
             width="43.997002"
             height="16"
             id="rect36030" />
          <path
             style="fill:#cc584c"
             d="M 300,488 H 147.768 c 14.184,6.628 29.056,12.04 44.512,16 H 300 Z"
             id="path36032" />
          <rect
             x="208.00101"
             y="167.995"
             style="fill:#cc584c"
             width="28"
             height="16"
             id="rect36034" />
          <rect
             x="368.00299"
             y="264.00299"
             style="fill:#cc584c"
             width="43.997002"
             height="16"
             id="rect36036" />
          <path
             style="fill:#cc584c"
             d="M 3.132,216 H 80 V 200 H 6.22 c -1.18,5.28 -2.24,10.6 -3.088,16 z"
             id="path36038" />
          <rect
             x="104"
             y="167.995"
             style="fill:#cc584c"
             width="88.003998"
             height="16"
             id="rect36040" />
          <rect
             x="84.002998"
             y="232"
             style="fill:#cc584c"
             width="191.995"
             height="16"
             id="rect36042" />
          <rect
             x="255.99899"
             y="68"
             style="fill:#cc584c"
             width="20"
             height="16"
             id="rect36044" />
          <path
             style="fill:#cc584c"
             d="M 6.22,312 H 192 V 296 H 3.132 c 0.848,5.4 1.908,10.72 3.088,16 z"
             id="path36046" />
          <rect
             x="255.99899"
             y="167.995"
             style="fill:#cc584c"
             width="80.000999"
             height="16"
             id="rect36048" />
        </g>
        <g
           id="g36126">
          <rect
             x="312.00101"
             y="199.998"
             style="fill:#f5f5f5"
             width="140.004"
             height="16"
             id="rect36052" />
          <path
             style="fill:#f5f5f5"
             d="m 388,152 h 101.916 c -2.416,-5.428 -5,-10.772 -7.772,-16 H 388 Z"
             id="path36054" />
          <path
             style="fill:#f5f5f5"
             d="m 428,280 h 82.844 c 0.492,-5.284 0.788,-10.624 0.952,-16 h -83.797 v 16 z"
             id="path36056" />
          <rect
             x="320.004"
             y="264.00299"
             style="fill:#f5f5f5"
             width="36"
             height="16"
             id="rect36058" />
          <rect
             x="147.99699"
             y="264.00299"
             style="fill:#f5f5f5"
             width="156.00101"
             height="16"
             id="rect36060" />
          <rect
             x="312.00101"
             y="104"
             style="fill:#f5f5f5"
             width="140.004"
             height="16"
             id="rect36062" />
          <rect
             x="160.002"
             y="68"
             style="fill:#f5f5f5"
             width="80.000999"
             height="16"
             id="rect36064" />
          <rect
             x="212.002"
             y="104"
             style="fill:#f5f5f5"
             width="80.000999"
             height="16"
             id="rect36066" />
          <rect
             x="299.99701"
             y="68"
             style="fill:#f5f5f5"
             width="80.000999"
             height="16"
             id="rect36068" />
          <path
             style="fill:#f5f5f5"
             d="M 508.868,296 H 208 v 16 h 297.78 c 1.18,-5.28 2.24,-10.6 3.088,-16 z"
             id="path36070" />
          <rect
             x="383.99899"
             y="327.99701"
             style="fill:#f5f5f5"
             width="68"
             height="16"
             id="rect36072" />
          <path
             style="fill:#f5f5f5"
             d="M 78.108,440 H 88 V 424 H 62.928 c 4.832,5.548 9.896,10.888 15.18,16 z"
             id="path36074" />
          <rect
             x="312.00101"
             y="360"
             style="fill:#f5f5f5"
             width="140.004"
             height="16"
             id="rect36076" />
          <path
             style="fill:#f5f5f5"
             d="m 436,184.001 h 65.664 c -1.58,-5.4 -3.264,-10.752 -5.188,-16 H 436 Z"
             id="path36078" />
          <rect
             x="292.004"
             y="232"
             style="fill:#f5f5f5"
             width="160.002"
             height="16"
             id="rect36080" />
          <rect
             x="292.004"
             y="136.00301"
             style="fill:#f5f5f5"
             width="72"
             height="16"
             id="rect36082" />
          <rect
             x="160.002"
             y="199.998"
             style="fill:#f5f5f5"
             width="140.005"
             height="16"
             id="rect36084" />
          <rect
             x="355.99799"
             y="167.995"
             style="fill:#f5f5f5"
             width="32"
             height="16"
             id="rect36086" />
          <rect
             x="303.99799"
             y="327.99701"
             style="fill:#f5f5f5"
             width="68"
             height="16"
             id="rect36088" />
          <path
             style="fill:#f5f5f5"
             d="m 312,456 v 16 h 81.328 c 7.756,-4.94 15.228,-10.276 22.384,-16 z"
             id="path36090" />
          <path
             style="fill:#f5f5f5"
             d="M 20,248 V 232 H 1.156 c -0.492,5.284 -0.788,10.624 -0.952,16 z"
             id="path36092" />
          <path
             style="fill:#f5f5f5"
             d="m 312,488 v 16 h 7.72 c 15.46,-3.96 30.328,-9.372 44.516,-16 z"
             id="path36094" />
          <path
             style="fill:#f5f5f5"
             d="M 156,456 H 96.288 c 7.16,5.724 14.628,11.06 22.384,16 H 156 Z"
             id="path36096" />
          <rect
             x="223.99699"
             y="424.005"
             style="fill:#f5f5f5"
             width="64.004997"
             height="16"
             id="rect36098" />
          <path
             style="fill:#f5f5f5"
             d="m 476,360 v 16 h 6.14 c 2.772,-5.228 5.356,-10.568 7.772,-16 z"
             id="path36100" />
          <rect
             x="312.00101"
             y="424.005"
             style="fill:#f5f5f5"
             width="64.004997"
             height="16"
             id="rect36102" />
          <path
             style="fill:#f5f5f5"
             d="m 492,200 v 16 h 16.868 c -0.848,-5.4 -1.908,-10.72 -3.084,-16 z"
             id="path36104" />
          <path
             style="fill:#f5f5f5"
             d="m 280,392 v 16 h 181.972 c 3.832,-5.18 7.44,-10.532 10.876,-16 z"
             id="path36106" />
          <rect
             x="104"
             y="199.998"
             style="fill:#f5f5f5"
             width="39.994999"
             height="16"
             id="rect36108" />
          <path
             style="fill:#f5f5f5"
             d="M 80,360 H 22.084 c 2.42,5.432 5,10.772 7.776,16 H 80 Z"
             id="path36110" />
          <path
             style="fill:#f5f5f5"
             d="M 80,408 V 392 H 39.153 c 3.436,5.468 7.048,10.82 10.876,16 z"
             id="path36112" />
          <rect
             x="28"
             y="232"
             style="fill:#f5f5f5"
             width="36"
             height="16"
             id="rect36114" />
          <path
             style="fill:#f5f5f5"
             d="M 128,328 H 10.336 c 1.58,5.4 3.268,10.752 5.188,16 H 128 Z"
             id="path36116" />
          <path
             style="fill:#f5f5f5"
             d="M 39.153,120 H 80 V 104 H 50.028 c -3.832,5.18 -7.44,10.533 -10.875,16 z"
             id="path36118" />
          <path
             style="fill:#f5f5f5"
             d="M 1.156,280 H 124 V 264 H 0.204 c 0.164,5.376 0.46,10.717 0.952,16 z"
             id="path36120" />
          <path
             style="fill:#f5f5f5"
             d="M 80,152 V 136 H 29.859 c -2.776,5.228 -5.356,10.572 -7.776,16 z"
             id="path36122" />
          <path
             style="fill:#f5f5f5"
             d="m 80,184.001 v -16 H 15.528 c -1.92,5.252 -3.608,10.6 -5.188,16 z"
             id="path36124" />
        </g>
        <g
           id="g36128" />
        <g
           id="g36130" />
        <g
           id="g36132" />
        <g
           id="g36134" />
        <g
           id="g36136" />
        <g
           id="g36138" />
        <g
           id="g36140" />
        <g
           id="g36142" />
        <g
           id="g36144" />
        <g
           id="g36146" />
        <g
           id="g36148" />
        <g
           id="g36150" />
        <g
           id="g36152" />
        <g
           id="g36154" />
        <g
           id="g36156" />
      </g>
    </g>
  </g>
  <g
     inkscape:groupmode="layer"
     id="layer2"
     inkscape:label="Layer 2" />
</svg>
